<?xml version="1.0" standalone="no"?>
<!DOCTYPE svg PUBLIC "-//W3C//DTD SVG 20010904//EN"
 "http://www.w3.org/TR/2001/REC-SVG-20010904/DTD/svg10.dtd">
<svg version="1.0" xmlns="http://www.w3.org/2000/svg"
 width="461.000000pt" height="346.000000pt" viewBox="0 0 461.000000 346.000000"
 preserveAspectRatio="xMidYMid meet">
<metadata>
Created by potrace 1.16, written by Peter Selinger 2001-2019
</metadata>
<g transform="translate(0.000000,346.000000) scale(0.100000,-0.100000)"
fill="#000000" stroke="none">
<path d="M2060 3305 c0 -25 5 -45 10 -45 6 0 10 9 10 19 0 11 8 22 18 24 16 4
16 5 0 6 -10 0 -18 7 -18 15 0 8 8 17 18 19 10 3 6 5 -10 6 -27 1 -28 -1 -28
-44z"/>
<path d="M2510 3341 c0 -5 -9 -11 -21 -14 -16 -4 -20 -12 -17 -34 2 -22 9 -29
31 -31 26 -3 27 -2 27 42 0 25 -4 46 -10 46 -5 0 -10 -4 -10 -9z m0 -52 c0
-20 -15 -26 -25 -9 -9 15 3 43 15 35 5 -3 10 -15 10 -26z"/>
<path d="M2589 3329 c-17 -33 3 -69 38 -68 l28 1 -25 7 c-16 4 -26 15 -28 30
-4 27 15 43 42 35 12 -4 16 -2 12 5 -12 19 -55 12 -67 -10z"/>
<path d="M2670 3305 c0 -43 1 -45 28 -45 34 0 52 16 52 47 0 24 -26 43 -59 43
-18 0 -21 -6 -21 -45z m48 26 c19 -12 11 -55 -10 -59 -15 -3 -18 4 -18 32 0
37 5 42 28 27z"/>
<path d="M2767 3343 c-11 -10 -8 -83 3 -83 6 0 10 9 10 19 0 12 8 21 23 24
l22 4 -22 2 c-13 0 -23 7 -23 15 0 8 10 17 23 19 20 4 20 4 -4 6 -14 0 -29 -2
-32 -6z"/>
<path d="M2873 3335 c-6 -17 2 -30 20 -30 23 0 19 -33 -5 -38 -16 -4 -14 -5 7
-4 23 2 31 7 33 25 3 17 -2 25 -17 29 -26 7 -27 20 -3 26 12 4 11 5 -6 6 -12
0 -25 -6 -29 -14z"/>
<path d="M2960 3326 c-15 -39 -23 -76 -17 -76 7 0 38 92 32 98 -2 3 -9 -7 -15
-22z"/>
<path d="M2990 3340 c0 -6 5 -8 10 -5 6 3 15 3 22 -1 7 -5 5 -11 -7 -21 -17
-12 -17 -13 -2 -13 28 0 19 -28 -10 -33 -26 -4 -25 -4 5 -6 33 -1 33 -1 30 42
-2 35 -7 43 -25 45 -13 2 -23 -2 -23 -8z"/>
<path d="M2132 3314 c-15 -27 -3 -54 24 -54 28 0 42 25 27 49 -14 23 -40 25
-51 5z m38 -25 c0 -20 -15 -26 -25 -9 -9 15 3 43 15 35 5 -3 10 -15 10 -26z"/>
<path d="M2200 3293 c0 -18 5 -33 10 -33 6 0 10 10 10 23 0 13 5 28 11 34 9 9
7 12 -10 10 -17 -1 -21 -8 -21 -34z"/>
<path d="M2254 3301 c8 -45 13 -49 31 -25 13 17 14 17 15 2 0 -10 5 -18 10
-18 6 0 10 1 10 3 0 1 4 17 9 35 6 20 6 32 0 32 -5 0 -9 -8 -9 -17 -1 -17 -1
-17 -14 0 -18 23 -26 22 -26 -5 -1 -23 -1 -23 -16 2 l-15 25 5 -34z"/>
<path d="M2350 3320 c0 -5 6 -7 14 -4 8 3 17 1 21 -5 3 -7 -2 -11 -14 -11 -14
0 -21 -6 -21 -20 0 -16 7 -20 30 -20 32 0 38 16 20 51 -11 19 -50 27 -50 9z
m35 -40 c-3 -5 -10 -10 -16 -10 -5 0 -9 5 -9 10 0 6 7 10 16 10 8 0 12 -4 9
-10z"/>
<path d="M2427 3323 c-11 -10 -8 -63 3 -63 6 0 10 10 10 23 0 13 5 28 12 35 9
9 9 12 -3 12 -9 0 -19 -3 -22 -7z"/>
<path d="M600 3116 c0 -82 -2 -95 -17 -99 -17 -4 -17 -5 0 -6 15 -1 17 -15 17
-155 0 -139 -2 -155 -17 -159 -17 -4 -17 -5 0 -6 15 -1 17 -16 17 -160 0 -144
-2 -160 -17 -164 -17 -4 -17 -5 0 -6 15 -1 17 -15 17 -155 0 -139 -2 -155 -17
-159 -17 -4 -17 -5 0 -6 15 -1 17 -16 17 -160 0 -144 -2 -160 -17 -164 -17 -4
-17 -5 0 -6 15 -1 17 -15 17 -155 0 -139 -2 -155 -17 -159 -17 -4 -17 -5 0 -6
15 -1 17 -16 17 -160 0 -144 -2 -160 -17 -164 -17 -4 -17 -5 0 -6 15 -1 17
-15 17 -155 0 -139 -2 -155 -17 -159 -17 -4 -17 -5 0 -6 15 -1 17 -16 17 -160
0 -144 -2 -160 -18 -164 -9 -3 72 -5 180 -6 178 -1 197 -3 201 -19 4 -16 5
-16 6 1 1 16 20 17 260 17 239 0 260 -1 264 -17 4 -17 5 -17 6 0 1 16 20 17
260 17 239 0 260 -1 264 -17 4 -17 5 -17 6 0 1 16 20 17 260 17 239 0 260 -1
264 -17 4 -17 5 -17 6 0 1 16 20 17 260 17 239 0 260 -1 264 -18 4 -16 5 -16
6 1 1 16 20 17 255 17 194 0 256 -3 259 -12 4 -10 6 -10 6 0 1 9 60 12 260 12
239 0 260 -1 264 -17 4 -17 5 -17 6 -1 1 16 19 18 184 20 l182 3 3 1398 2
1397 -1955 0 -1955 0 0 -94z m3890 -1301 l0 -1385 -175 0 -175 0 0 1270 0
1270 -90 0 -90 0 0 -1270 0 -1270 -175 0 -175 0 0 1320 0 1320 -90 0 -90 0 0
-1320 0 -1320 -175 0 -175 0 0 1150 0 1150 -90 0 -90 0 0 -1150 0 -1150 -175
0 -175 0 0 1085 0 1085 -90 0 -90 0 0 -1085 0 -1085 -175 0 -175 0 0 980 0
980 -90 0 -90 0 0 -980 0 -980 -175 0 -175 0 0 950 0 950 -90 0 -90 0 0 -950
0 -950 -170 0 -170 0 0 1020 0 1020 -90 0 -90 0 0 -1020 0 -1020 -90 0 -90 0
0 1385 0 1385 1940 0 1940 0 0 -1385z"/>
<path d="M996 3107 c-28 -20 -18 -61 17 -65 15 -2 27 1 27 6 0 5 -10 8 -22 8
-32 -1 -32 38 0 42 12 2 20 8 17 13 -8 12 -18 11 -39 -4z"/>
<path d="M1057 3113 c-11 -10 -8 -73 3 -73 6 0 10 7 10 15 0 8 7 15 15 15 20
0 19 36 -1 44 -19 7 -19 7 -27 -1z m33 -23 c0 -5 -4 -10 -10 -10 -5 0 -10 5
-10 10 0 6 5 10 10 10 6 0 10 -4 10 -10z"/>
<path d="M1159 3091 c-5 -45 -29 -54 -29 -12 0 17 -5 31 -11 31 -6 0 -9 -14
-7 -32 2 -25 8 -34 26 -36 26 -4 35 14 30 55 -4 27 -4 27 -9 -6z"/>
<path d="M700 3070 l0 -30 95 0 95 0 0 30 0 30 -95 0 -95 0 0 -30z"/>
<path d="M996 2957 c-11 -8 -17 -23 -14 -38 2 -19 9 -24 33 -24 20 0 31 5 33
18 2 10 -3 17 -12 17 -10 0 -13 -6 -9 -16 4 -12 1 -15 -13 -12 -28 5 -25 42 4
46 12 2 20 8 17 13 -8 12 -18 11 -39 -4z"/>
<path d="M1061 2928 c1 -24 3 -35 6 -25 2 9 13 17 24 17 23 0 26 35 3 44 -29
11 -34 6 -33 -36z m39 12 c0 -5 -7 -10 -15 -10 -8 0 -15 5 -15 10 0 6 7 10 15
10 8 0 15 -4 15 -10z"/>
<path d="M1123 2935 c2 -36 5 -40 27 -40 21 0 26 5 28 33 2 18 -1 32 -7 32 -6
0 -11 -14 -11 -31 0 -41 -23 -33 -32 12 -6 34 -6 34 -5 -6z"/>
<path d="M273 3052 c-12 -7 -16 -25 -14 -55 2 -30 45 -18 49 14 3 28 -17 52
-35 41z m17 -37 c0 -14 -4 -25 -10 -25 -5 0 -10 11 -10 25 0 14 5 25 10 25 6
0 10 -11 10 -25z"/>
<path d="M360 3045 c-18 -22 -8 -60 15 -60 15 0 21 8 23 31 3 35 -19 52 -38
29z m30 -30 c0 -26 -14 -33 -25 -15 -9 14 1 40 15 40 5 0 10 -11 10 -25z"/>
<path d="M490 3046 c-16 -20 -9 -60 13 -64 25 -5 34 28 12 44 -17 13 -17 14
-1 14 9 0 14 5 11 10 -9 14 -21 12 -35 -4z m27 -52 c-9 -9 -28 6 -21 18 4 6
10 6 17 -1 6 -6 8 -13 4 -17z"/>
<path d="M425 3015 c0 -25 4 -35 15 -35 12 0 15 8 12 35 -2 19 -9 35 -16 35
-6 0 -11 -15 -11 -35z"/>
<path d="M273 2722 c-12 -7 -16 -25 -14 -55 2 -30 45 -18 49 14 3 28 -17 52
-35 41z m17 -37 c0 -14 -4 -25 -10 -25 -5 0 -10 11 -10 25 0 14 5 25 10 25 6
0 10 -11 10 -25z"/>
<path d="M360 2715 c-18 -22 -8 -60 15 -60 15 0 21 8 23 31 3 35 -19 52 -38
29z m30 -30 c0 -26 -14 -33 -25 -15 -9 14 1 40 15 40 5 0 10 -11 10 -25z"/>
<path d="M497 2710 c-22 -32 -22 -46 3 -53 26 -7 30 1 21 43 l-7 34 -17 -24z
m13 -20 c0 -5 -5 -10 -11 -10 -5 0 -7 5 -4 10 3 6 8 10 11 10 2 0 4 -4 4 -10z"/>
<path d="M425 2685 c0 -25 4 -35 15 -35 12 0 15 8 12 35 -2 19 -9 35 -16 35
-6 0 -11 -15 -11 -35z"/>
<path d="M273 2402 c-12 -7 -16 -25 -14 -55 2 -30 45 -18 49 14 3 28 -17 52
-35 41z m17 -37 c0 -14 -4 -25 -10 -25 -5 0 -10 11 -10 25 0 14 5 25 10 25 6
0 10 -11 10 -25z"/>
<path d="M360 2395 c-18 -22 -8 -60 15 -60 15 0 21 8 23 31 3 35 -19 52 -38
29z m30 -30 c0 -26 -14 -33 -25 -15 -9 14 1 40 15 40 5 0 10 -11 10 -25z"/>
<path d="M485 2400 c-3 -5 1 -10 9 -10 20 0 20 -14 1 -30 -23 -19 -18 -30 13
-29 18 1 21 3 9 6 -18 5 -18 6 -1 24 14 15 14 21 4 34 -14 17 -26 19 -35 5z"/>
<path d="M425 2365 c0 -25 4 -35 15 -35 12 0 15 8 12 35 -2 19 -9 35 -16 35
-6 0 -11 -15 -11 -35z"/>
<path d="M110 2263 c0 -5 23 -8 50 -8 28 0 50 3 50 7 0 5 -22 8 -50 8 -27 0
-50 -3 -50 -7z"/>
<path d="M160 2225 c0 -18 -16 -20 -23 -2 -3 7 -6 5 -6 -5 -1 -11 6 -18 18
-18 11 0 22 8 24 18 4 13 5 11 6 -5 1 -17 -5 -23 -19 -23 -11 0 -20 -4 -20
-10 0 -5 9 -10 20 -10 27 0 25 -18 -2 -23 -20 -4 -19 -4 5 -6 26 -1 27 1 27
49 0 38 -4 50 -15 50 -8 0 -15 -7 -15 -15z"/>
<path d="M110 2108 c0 -5 23 -8 50 -8 28 0 50 3 50 8 0 4 -22 7 -50 7 -27 0
-50 -3 -50 -7z"/>
<path d="M273 2072 c-12 -7 -16 -25 -14 -55 2 -30 45 -18 49 14 3 28 -17 52
-35 41z m17 -37 c0 -14 -4 -25 -10 -25 -5 0 -10 11 -10 25 0 14 5 25 10 25 6
0 10 -11 10 -25z"/>
<path d="M360 2065 c-18 -22 -8 -60 15 -60 15 0 21 8 23 31 3 35 -19 52 -38
29z m30 -30 c0 -26 -14 -33 -25 -15 -9 14 1 40 15 40 5 0 10 -11 10 -25z"/>
<path d="M491 2070 c-7 -4 -11 -20 -9 -36 2 -21 8 -29 23 -29 15 0 21 8 23 31
3 33 -14 49 -37 34z m27 -32 c-5 -32 -28 -35 -28 -4 0 17 5 26 16 26 10 0 14
-7 12 -22z"/>
<path d="M425 2035 c0 -25 4 -35 15 -35 12 0 15 8 12 35 -2 19 -9 35 -16 35
-6 0 -11 -15 -11 -35z"/>
<path d="M128 2043 c12 -2 32 -2 45 0 12 2 2 4 -23 4 -25 0 -35 -2 -22 -4z"/>
<path d="M139 2014 c-10 -12 -10 -18 3 -30 21 -21 48 -7 47 25 l-1 26 -8 -25
c-5 -16 -8 -19 -9 -8 -1 24 -17 30 -32 12z m21 -14 c0 -5 -2 -10 -4 -10 -3 0
-8 5 -11 10 -3 6 -1 10 4 10 6 0 11 -4 11 -10z"/>
<path d="M140 1937 c0 -10 5 -15 10 -12 6 4 17 2 24 -5 11 -8 14 -6 12 13 -1
19 -6 24 -23 23 -15 -1 -23 -7 -23 -19z"/>
<path d="M128 1893 c12 -2 32 -2 45 0 12 2 2 4 -23 4 -25 0 -35 -2 -22 -4z"/>
<path d="M137 1873 c-4 -3 -7 -15 -7 -25 0 -15 8 -18 43 -18 23 0 37 4 31 8
-6 4 -13 15 -17 25 -6 17 -37 23 -50 10z m38 -14 c10 -15 -1 -23 -20 -15 -9 3
-13 10 -10 16 8 13 22 13 30 -1z"/>
<path d="M133 1765 c0 -10 10 -15 31 -14 21 1 25 3 11 6 -11 3 -25 9 -31 14
-7 5 -11 3 -11 -6z"/>
<path d="M273 1752 c-12 -7 -16 -25 -14 -55 2 -30 45 -18 49 14 3 28 -17 52
-35 41z m17 -37 c0 -14 -4 -25 -10 -25 -5 0 -10 11 -10 25 0 14 5 25 10 25 6
0 10 -11 10 -25z"/>
<path d="M360 1745 c-18 -22 -8 -60 15 -60 15 0 21 8 23 31 3 35 -19 52 -38
29z m30 -30 c0 -26 -14 -33 -25 -15 -9 14 1 40 15 40 5 0 10 -11 10 -25z"/>
<path d="M420 1745 c-17 -21 -4 -65 20 -65 23 0 35 33 20 60 -13 24 -23 25
-40 5z m30 -30 c0 -14 -4 -25 -10 -25 -5 0 -10 11 -10 25 0 14 5 25 10 25 6 0
10 -11 10 -25z"/>
<path d="M493 1753 c-7 -3 -13 -20 -13 -39 0 -29 3 -34 24 -34 21 0 24 5 24
34 0 34 -12 47 -35 39z m27 -17 c0 -11 -19 -15 -25 -6 -3 5 1 10 9 10 9 0 16
-2 16 -4z m0 -36 c0 -5 -7 -10 -15 -10 -8 0 -15 5 -15 10 0 6 7 10 15 10 8 0
15 -4 15 -10z"/>
<path d="M140 1725 c-10 -12 -10 -18 -1 -29 8 -10 9 -16 1 -21 -5 -3 -10 -15
-10 -26 0 -16 7 -19 43 -19 23 0 38 4 32 8 -17 12 -36 52 -25 52 5 0 10 12 9
28 l-1 27 -8 -25 c-5 -16 -8 -19 -9 -8 -1 24 -17 30 -31 13z m20 -15 c0 -5 -2
-10 -4 -10 -3 0 -8 5 -11 10 -3 6 -1 10 4 10 6 0 11 -4 11 -10z m15 -51 c10
-15 -1 -23 -20 -15 -9 3 -13 10 -10 16 8 13 22 13 30 -1z"/>
<path d="M139 1574 c-10 -12 -10 -18 3 -30 21 -21 48 -7 47 25 l-1 26 -8 -25
c-5 -16 -8 -19 -9 -8 -1 24 -17 30 -32 12z m21 -14 c0 -5 -2 -10 -4 -10 -3 0
-8 5 -11 10 -3 6 -1 10 4 10 6 0 11 -4 11 -10z"/>
<path d="M137 1513 c-2 -5 -4 -23 -5 -40 -2 -31 0 -33 30 -32 21 1 26 3 13 6
-34 8 -41 23 -12 23 15 0 27 5 27 10 0 6 -12 10 -27 10 -29 0 -22 15 12 23 15
4 14 5 -7 6 -15 0 -29 -2 -31 -6z"/>
<path d="M273 1432 c-12 -7 -16 -25 -14 -55 2 -30 45 -18 49 14 3 28 -17 52
-35 41z m17 -37 c0 -14 -4 -25 -10 -25 -5 0 -10 11 -10 25 0 14 5 25 10 25 6
0 10 -11 10 -25z"/>
<path d="M360 1425 c-18 -22 -8 -60 15 -60 15 0 21 8 23 31 3 35 -19 52 -38
29z m30 -30 c0 -26 -14 -33 -25 -15 -9 14 1 40 15 40 5 0 10 -11 10 -25z"/>
<path d="M420 1425 c-17 -21 -4 -65 20 -65 23 0 35 33 20 60 -13 24 -23 25
-40 5z m30 -30 c0 -14 -4 -25 -10 -25 -5 0 -10 11 -10 25 0 14 5 25 10 25 6 0
10 -11 10 -25z"/>
<path d="M490 1426 c-16 -20 -9 -60 13 -64 25 -5 34 28 12 44 -17 13 -17 14
-1 14 9 0 14 5 11 10 -9 14 -21 12 -35 -4z m27 -52 c-9 -9 -28 6 -21 18 4 6
10 6 17 -1 6 -6 8 -13 4 -17z"/>
<path d="M128 1413 c12 -2 32 -2 45 0 12 2 2 4 -23 4 -25 0 -35 -2 -22 -4z"/>
<path d="M110 1370 c0 -16 5 -30 10 -30 6 0 10 5 10 10 0 6 14 10 30 10 17 0
30 5 30 10 0 6 -13 10 -30 10 -16 0 -30 5 -30 10 0 6 -4 10 -10 10 -5 0 -10
-13 -10 -30z"/>
<path d="M273 1102 c-12 -7 -16 -25 -14 -55 2 -30 45 -18 49 14 3 28 -17 52
-35 41z m17 -37 c0 -14 -4 -25 -10 -25 -5 0 -10 11 -10 25 0 14 5 25 10 25 6
0 10 -11 10 -25z"/>
<path d="M360 1095 c-18 -22 -8 -60 15 -60 15 0 21 8 23 31 3 35 -19 52 -38
29z m30 -30 c0 -26 -14 -33 -25 -15 -9 14 1 40 15 40 5 0 10 -11 10 -25z"/>
<path d="M420 1095 c-17 -21 -4 -65 20 -65 23 0 35 33 20 60 -13 24 -23 25
-40 5z m30 -30 c0 -14 -4 -25 -10 -25 -5 0 -10 11 -10 25 0 14 5 25 10 25 6 0
10 -11 10 -25z"/>
<path d="M497 1090 c-22 -32 -22 -46 3 -53 26 -7 30 1 21 43 l-7 34 -17 -24z
m13 -20 c0 -5 -5 -10 -11 -10 -5 0 -7 5 -4 10 3 6 8 10 11 10 2 0 4 -4 4 -10z"/>
<path d="M273 782 c-12 -7 -16 -25 -14 -55 2 -30 45 -18 49 14 3 28 -17 52
-35 41z m17 -37 c0 -14 -4 -25 -10 -25 -5 0 -10 11 -10 25 0 14 5 25 10 25 6
0 10 -11 10 -25z"/>
<path d="M360 775 c-18 -22 -8 -60 15 -60 15 0 21 8 23 31 3 35 -19 52 -38 29z
m30 -30 c0 -26 -14 -33 -25 -15 -9 14 1 40 15 40 5 0 10 -11 10 -25z"/>
<path d="M420 775 c-17 -21 -4 -65 20 -65 23 0 35 33 20 60 -13 24 -23 25 -40
5z m30 -30 c0 -14 -4 -25 -10 -25 -5 0 -10 11 -10 25 0 14 5 25 10 25 6 0 10
-11 10 -25z"/>
<path d="M485 780 c-3 -5 1 -10 9 -10 20 0 20 -14 1 -30 -23 -19 -18 -30 13
-29 18 1 21 3 9 6 -18 5 -18 6 -1 24 14 15 14 21 4 34 -14 17 -26 19 -35 5z"/>
<path d="M273 452 c-12 -7 -16 -25 -14 -55 2 -30 45 -18 49 14 3 28 -17 52
-35 41z m17 -37 c0 -14 -4 -25 -10 -25 -5 0 -10 11 -10 25 0 14 5 25 10 25 6
0 10 -11 10 -25z"/>
<path d="M360 445 c-18 -22 -8 -60 15 -60 15 0 21 8 23 31 3 35 -19 52 -38 29z
m30 -30 c0 -26 -14 -33 -25 -15 -9 14 1 40 15 40 5 0 10 -11 10 -25z"/>
<path d="M420 445 c-17 -21 -4 -65 20 -65 23 0 35 33 20 60 -13 24 -23 25 -40
5z m30 -30 c0 -14 -4 -25 -10 -25 -5 0 -10 11 -10 25 0 14 5 25 10 25 6 0 10
-11 10 -25z"/>
<path d="M491 450 c-7 -4 -11 -20 -9 -36 2 -21 8 -29 23 -29 15 0 21 8 23 31
3 33 -14 49 -37 34z m27 -32 c-5 -32 -28 -35 -28 -4 0 17 5 26 16 26 10 0 14
-7 12 -22z"/>
<path d="M890 340 c-10 -6 -11 -10 -2 -10 6 0 12 -11 12 -24 0 -13 -6 -27 -12
-29 -7 -3 1 -6 17 -6 17 0 25 3 18 7 -6 4 -13 22 -15 39 -2 26 -6 31 -18 23z"/>
<path d="M945 341 c-3 -5 4 -11 16 -13 l21 -3 -22 -27 -21 -28 28 1 c22 0 24
2 10 8 -17 6 -17 8 -3 20 20 17 20 37 0 45 -20 8 -22 8 -29 -3z"/>
<path d="M1017 343 c-4 -3 -7 -22 -7 -40 0 -30 3 -34 23 -31 16 2 22 10 22 28
0 38 -21 61 -38 43z m23 -23 c0 -5 -2 -10 -4 -10 -3 0 -8 5 -11 10 -3 6 -1 10
4 10 6 0 11 -4 11 -10z m0 -30 c0 -5 -4 -10 -10 -10 -5 0 -10 5 -10 10 0 6 5
10 10 10 6 0 10 -4 10 -10z"/>
<path d="M1415 340 c-3 -5 1 -10 9 -10 22 0 20 -9 -6 -37 l-21 -23 34 1 c19 1
26 3 16 6 -15 4 -16 7 -2 26 11 15 12 24 3 34 -13 16 -25 17 -33 3z"/>
<path d="M1477 343 c-13 -13 -7 -31 13 -36 27 -7 25 -25 -2 -30 l-23 -4 23 -2
c30 -1 41 28 17 45 -10 8 -13 14 -7 14 7 0 12 5 12 10 0 11 -23 14 -33 3z"/>
<path d="M1546 334 c-18 -17 -19 -24 -10 -48 7 -17 39 -22 48 -7 10 15 -5 41
-23 42 -13 0 -12 2 3 8 13 5 16 10 9 14 -6 4 -19 0 -27 -9z m24 -39 c0 -8 -4
-15 -10 -15 -5 0 -10 7 -10 15 0 8 5 15 10 15 6 0 10 -7 10 -15z"/>
<path d="M1940 330 c0 -11 7 -20 15 -20 21 0 19 -28 -2 -33 -14 -4 -13 -5 4
-6 12 0 24 3 27 8 9 14 -4 39 -22 44 -15 4 -15 5 1 6 24 1 22 21 -3 21 -13 0
-20 -7 -20 -20z"/>
<path d="M2010 340 c-10 -6 -11 -10 -2 -10 6 0 12 -11 12 -24 0 -13 -6 -27
-12 -29 -7 -3 1 -6 17 -6 17 0 25 3 18 7 -6 4 -13 22 -15 39 -2 26 -6 31 -18
23z"/>
<path d="M2069 339 c-11 -7 -9 -9 9 -9 28 0 28 -8 0 -37 l-21 -23 29 0 c20 0
25 3 15 9 -9 6 -10 11 -2 15 15 10 14 43 -2 49 -8 3 -20 1 -28 -4z"/>
<path d="M2440 339 c-10 -6 -11 -9 -2 -9 6 0 12 -11 12 -24 0 -13 -6 -27 -12
-29 -7 -3 -2 -6 12 -6 24 -1 26 2 22 34 -5 40 -12 48 -32 34z"/>
<path d="M2513 342 c-12 -7 -16 -25 -14 -55 2 -30 45 -18 49 14 3 28 -17 52
-35 41z m17 -37 c0 -14 -4 -25 -10 -25 -5 0 -10 11 -10 25 0 14 5 25 10 25 6
0 10 -11 10 -25z"/>
<path d="M2565 340 c-3 -5 1 -10 9 -10 20 0 20 -14 1 -30 -23 -19 -18 -30 13
-29 18 1 21 3 9 6 -18 5 -18 6 -1 24 14 15 14 21 4 34 -14 17 -26 19 -35 5z"/>
<path d="M2636 319 c-20 -34 -20 -34 12 -43 23 -8 26 -1 22 39 -3 34 -15 36
-34 4z"/>
<path d="M2965 341 c-3 -5 4 -11 16 -13 l21 -3 -22 -27 -21 -28 28 1 c22 0 24
2 10 8 -17 6 -17 8 -3 20 20 17 20 37 0 45 -20 8 -22 8 -29 -3z"/>
<path d="M3030 335 c-17 -21 -4 -65 20 -65 23 0 35 33 20 60 -13 24 -23 25
-40 5z m30 -30 c0 -14 -4 -25 -10 -25 -5 0 -10 11 -10 25 0 14 5 25 10 25 6 0
10 -11 10 -25z"/>
<path d="M3107 330 c-22 -32 -22 -46 3 -53 26 -7 30 1 21 43 l-7 34 -17 -24z
m13 -20 c0 -5 -5 -10 -11 -10 -5 0 -7 5 -4 10 3 6 8 10 11 10 2 0 4 -4 4 -10z"/>
<path d="M3162 341 c-6 -4 -10 -20 -9 -36 2 -23 8 -31 25 -33 19 -3 22 1 22
31 0 35 -17 51 -38 38z m28 -15 c0 -3 -4 -8 -10 -11 -5 -3 -10 -1 -10 4 0 6 5
11 10 11 6 0 10 -2 10 -4z m0 -36 c0 -5 -4 -10 -9 -10 -6 0 -13 5 -16 10 -3 6
1 10 9 10 9 0 16 -4 16 -10z"/>
<path d="M3507 330 c-22 -32 -22 -46 3 -53 26 -7 30 1 21 43 l-7 34 -17 -24z
m13 -20 c0 -5 -5 -10 -11 -10 -5 0 -7 5 -4 10 3 6 8 10 11 10 2 0 4 -4 4 -10z"/>
<path d="M3560 335 c-18 -22 -8 -60 15 -60 15 0 21 8 23 31 3 35 -19 52 -38
29z m30 -30 c0 -26 -14 -33 -25 -15 -9 14 1 40 15 40 5 0 10 -11 10 -25z"/>
<path d="M3620 331 c-8 -16 -6 -23 11 -34 20 -14 20 -15 2 -20 -15 -4 -14 -5
4 -6 27 -1 42 41 23 64 -17 20 -27 19 -40 -4z m30 -11 c0 -5 -4 -10 -10 -10
-5 0 -10 5 -10 10 0 6 5 10 10 10 6 0 10 -4 10 -10z"/>
<path d="M3690 336 c-16 -20 -9 -60 13 -64 25 -5 34 28 12 44 -17 13 -17 14
-1 14 9 0 14 5 11 10 -9 14 -21 12 -35 -4z m27 -52 c-9 -9 -28 6 -21 18 4 6
10 6 17 -1 6 -6 8 -13 4 -17z"/>
<path d="M4027 343 c-4 -3 -7 -22 -7 -40 0 -30 3 -34 23 -31 16 2 22 10 22 28
0 38 -21 61 -38 43z m23 -23 c0 -5 -2 -10 -4 -10 -3 0 -8 5 -11 10 -3 6 -1 10
4 10 6 0 11 -4 11 -10z m0 -30 c0 -5 -4 -10 -10 -10 -5 0 -10 5 -10 10 0 6 5
10 10 10 6 0 10 -4 10 -10z"/>
<path d="M4090 339 c-10 -6 -11 -9 -2 -9 6 0 12 -11 12 -24 0 -13 -6 -27 -12
-29 -7 -3 -2 -6 12 -6 24 -1 26 2 22 34 -5 40 -12 48 -32 34z"/>
<path d="M4149 333 c-11 -13 -10 -18 9 -33 20 -17 21 -19 5 -23 -16 -4 -16 -5
-1 -6 20 -1 40 31 32 53 -8 22 -31 27 -45 9z m31 -13 c0 -5 -4 -10 -10 -10 -5
0 -10 5 -10 10 0 6 5 10 10 10 6 0 10 -4 10 -10z"/>
<path d="M4215 340 c-3 -5 1 -10 9 -10 20 0 20 -14 1 -30 -23 -19 -18 -30 13
-29 18 1 21 3 9 6 -18 5 -18 6 -1 24 14 15 14 21 4 34 -14 17 -26 19 -35 5z"/>
<path d="M2173 180 c0 -25 2 -35 4 -22 2 12 2 32 0 45 -2 12 -4 2 -4 -23z"/>
<path d="M2630 210 c0 -5 -6 -10 -14 -10 -16 0 -31 -34 -21 -50 3 -5 15 -10
26 -10 16 0 19 7 19 40 0 22 -2 40 -5 40 -3 0 -5 -4 -5 -10z m0 -46 c0 -14
-12 -19 -23 -8 -9 9 4 35 14 28 5 -3 9 -12 9 -20z"/>
<path d="M2750 170 c0 -27 3 -50 8 -50 4 0 7 22 7 50 0 27 -3 50 -7 50 -5 0
-8 -22 -8 -50z"/>
<path d="M2918 170 c5 -61 22 -56 22 6 0 28 -4 44 -12 44 -9 0 -12 -15 -10
-50z"/>
<path d="M2201 168 c1 -21 3 -26 6 -13 8 34 23 41 23 12 0 -15 5 -27 10 -27 6
0 10 12 10 27 0 29 14 22 23 -12 3 -12 5 -8 4 10 -2 27 -6 30 -39 33 -37 2
-38 1 -37 -30z"/>
<path d="M2300 190 c0 -6 6 -8 13 -5 6 4 4 0 -5 -8 -26 -20 -22 -37 8 -37 22
0 25 4 22 27 -3 27 -38 48 -38 23z m30 -30 c0 -5 -5 -10 -11 -10 -5 0 -7 5 -4
10 3 6 8 10 11 10 2 0 4 -4 4 -10z"/>
<path d="M2361 186 c-14 -17 -4 -46 18 -47 12 0 12 -2 -4 -9 -19 -8 -19 -9 1
-9 34 -1 49 61 18 73 -21 8 -20 8 -33 -8z m29 -16 c0 -11 -4 -20 -10 -20 -5 0
-10 9 -10 20 0 11 5 20 10 20 6 0 10 -9 10 -20z"/>
<path d="M2427 194 c-4 -4 -7 -18 -7 -31 0 -19 5 -23 28 -22 l27 1 -25 8 c-25
8 -25 8 -2 9 17 1 22 6 20 18 -3 19 -29 29 -41 17z m28 -14 c3 -5 -1 -10 -10
-10 -9 0 -13 5 -10 10 3 6 8 10 10 10 2 0 7 -4 10 -10z"/>
<path d="M2514 188 c-4 -6 1 -17 10 -24 16 -12 16 -13 -1 -17 -10 -3 -3 -5 15
-4 28 1 32 5 31 27 0 19 -2 21 -7 8 -5 -13 -11 -15 -22 -8 -13 9 -13 11 0 20
13 8 13 10 -2 10 -9 0 -20 -5 -24 -12z"/>
<path d="M2661 186 c-18 -21 -2 -46 28 -45 l26 1 -25 7 -25 7 24 7 c21 5 22 8
11 21 -15 20 -24 20 -39 2z m29 -6 c0 -5 -5 -10 -11 -10 -5 0 -7 5 -4 10 3 6
8 10 11 10 2 0 4 -4 4 -10z"/>
<path d="M2791 156 c0 -22 3 -35 6 -28 2 6 14 12 24 12 31 0 22 55 -8 56 -20
1 -23 -3 -22 -40z m39 8 c0 -16 -16 -19 -25 -4 -8 13 4 32 16 25 5 -4 9 -13 9
-21z"/>
<path d="M2854 173 c1 -22 6 -28 24 -29 18 -2 20 1 12 11 -8 9 -8 15 0 20 5 3
10 11 10 17 0 7 -4 7 -13 -1 -9 -7 -17 -7 -24 0 -7 7 -10 1 -9 -18z"/>
</g>
</svg>
